<svg width="20" height="18" viewBox="0 0 30 24" fill="none" xmlns="http://www.w3.org/2000/svg">
<path fill-rule="evenodd" clip-rule="evenodd" d="M30 2.84099C28.875 3.33153 27.6836 3.65301 26.4645 3.79499C27.7444 3.04468 28.7066 1.85318 29.1705 0.443987C27.9601 1.15049 26.639 1.64748 25.263 1.91399C24.6829 1.30722 23.9856 0.824684 23.2133 0.495662C22.441 0.166641 21.6099 -0.00199725 20.7705 -1.32124e-05C17.3715 -1.32124e-05 14.616 2.71199 14.616 6.05999C14.616 6.53399 14.67 6.99599 14.775 7.43999C12.3368 7.32424 9.94941 6.70156 7.76525 5.61167C5.58109 4.52179 3.64807 2.98862 2.0895 1.10999C1.54288 2.03158 1.25477 3.08348 1.2555 4.15499C1.25712 5.15696 1.50839 6.14273 1.98661 7.02321C2.46483 7.9037 3.15491 8.65114 3.9945 9.19799C3.01839 9.16809 2.06307 8.90858 1.206 8.44049V8.51549C1.206 11.451 3.327 13.9005 6.141 14.457C5.23445 14.699 4.28523 14.7348 3.363 14.562C4.146 16.968 6.4185 18.72 9.1125 18.7695C6.9225 20.4577 4.23368 21.3705 1.4685 21.3645C0.977725 21.364 0.487394 21.335 0 21.2775C2.82347 23.0607 6.09556 24.0049 9.435 24C20.7555 24 26.946 14.7675 26.946 6.76199C26.946 6.49949 26.94 6.23699 26.928 5.97749C28.1306 5.12391 29.171 4.06221 30 2.84249V2.84099Z" fill="black"/>
</svg>
