<svg width="20" height="20" viewBox="0 0 26 26" fill="none" xmlns="http://www.w3.org/2000/svg">
<path d="M14.7126 0.617505C11.7217 0.206073 8.68293 0.890695 6.1574 2.54495C3.63188 4.19921 1.79018 6.71138 0.972369 9.61759C0.154561 12.5238 0.41588 15.6278 1.70807 18.3563C3.00027 21.0849 5.23606 23.2538 8.00262 24.4625C7.9278 23.5023 7.99647 22.5362 8.20637 21.5963C8.43762 20.5475 9.82637 14.7675 9.82637 14.7675C9.54983 14.1476 9.41163 13.475 9.42137 12.7963C9.42137 10.94 10.4926 9.55501 11.8251 9.55501C12.0645 9.55152 12.3018 9.59962 12.521 9.69604C12.7401 9.79246 12.9359 9.93494 13.0951 10.1138C13.2542 10.2926 13.373 10.5036 13.4433 10.7325C13.5136 10.9613 13.5339 11.2026 13.5026 11.44C13.5026 12.565 12.7801 14.2675 12.4026 15.865C12.328 16.158 12.3233 16.4644 12.3888 16.7595C12.4543 17.0547 12.5883 17.3303 12.7798 17.5642C12.9714 17.7981 13.2152 17.9837 13.4917 18.1061C13.7681 18.2284 14.0694 18.2842 14.3714 18.2688C16.7439 18.2688 18.3339 15.23 18.3339 11.6425C18.3339 8.8925 16.5126 6.8325 13.1551 6.8325C12.3518 6.80129 11.5506 6.93366 10.8 7.22157C10.0495 7.50949 9.36526 7.94694 8.78893 8.50737C8.2126 9.06779 7.75619 9.73951 7.4474 10.4817C7.13861 11.2239 6.98388 12.0212 6.99262 12.825C6.95683 13.7167 7.2445 14.5912 7.80262 15.2875C7.90691 15.3654 7.98306 15.475 8.01959 15.5999C8.05611 15.7248 8.05104 15.8582 8.00512 15.98C7.94762 16.21 7.80262 16.7588 7.74512 16.96C7.73316 17.0283 7.70534 17.0927 7.6639 17.1483C7.62246 17.2038 7.56855 17.2488 7.50653 17.2797C7.44451 17.3106 7.3761 17.3265 7.30681 17.3261C7.23752 17.3257 7.1693 17.3091 7.10762 17.2775C5.37762 16.585 4.56262 14.6813 4.56262 12.5075C4.56262 8.94876 7.54262 4.68875 13.5051 4.68875C18.2501 4.68875 21.4051 8.16 21.4051 11.8725C21.4051 16.7588 18.6839 20.4325 14.6626 20.4325C14.0616 20.4517 13.4655 20.3191 12.9293 20.0468C12.3931 19.7746 11.9343 19.3716 11.5951 18.875C11.5951 18.875 10.8726 21.77 10.7301 22.3175C10.4392 23.2634 10.01 24.161 9.45637 24.9813C10.6101 25.3313 11.8089 25.5063 13.0139 25.5013C14.6558 25.5026 16.2819 25.18 17.7991 24.552C19.3162 23.924 20.6946 23.0029 21.8552 21.8414C23.0158 20.6799 23.936 19.3009 24.5629 17.7834C25.1899 16.2658 25.5113 14.6395 25.5089 12.9975C25.5073 9.97875 24.4136 7.0625 22.4297 4.78723C20.4457 2.51196 17.7055 1.03134 14.7151 0.618755L14.7126 0.617505Z" fill="black"/>
</svg>
