<svg width="19" height="19" viewBox="0 0 26 26" fill="none" xmlns="http://www.w3.org/2000/svg">
<path d="M13 9.9C12.3869 9.9 11.7875 10.0818 11.2777 10.4224C10.7679 10.7631 10.3706 11.2472 10.136 11.8137C9.90134 12.3801 9.83995 13.0034 9.95957 13.6048C10.0792 14.2061 10.3744 14.7585 10.808 15.192C11.2415 15.6256 11.7939 15.9208 12.3952 16.0404C12.9966 16.16 13.6199 16.0987 14.1863 15.864C14.7528 15.6294 15.2369 15.2321 15.5776 14.7223C15.9182 14.2125 16.1 13.6131 16.1 13C16.1 12.5929 16.0198 12.1898 15.864 11.8137C15.7082 11.4376 15.4799 11.0958 15.192 10.808C14.9042 10.5201 14.5624 10.2918 14.1863 10.136C13.8102 9.98018 13.4071 9.9 13 9.9ZM25.4125 6.8375C25.4059 5.8722 25.2282 4.91571 24.8875 4.0125C24.6366 3.35157 24.2484 2.75137 23.7485 2.25148C23.2486 1.7516 22.6484 1.3634 21.9875 1.1125C21.0843 0.77183 20.1278 0.594076 19.1625 0.5875C17.55 0.5 17.075 0.5 13 0.5C8.925 0.5 8.45 0.5 6.8375 0.5875C5.8722 0.594076 4.91571 0.77183 4.0125 1.1125C3.35157 1.3634 2.75137 1.7516 2.25148 2.25148C1.7516 2.75137 1.3634 3.35157 1.1125 4.0125C0.77183 4.91571 0.594076 5.8722 0.5875 6.8375C0.5 8.45 0.5 8.925 0.5 13C0.5 17.075 0.5 17.55 0.5875 19.1625C0.600955 20.1312 0.778468 21.0906 1.1125 22C1.36229 22.6579 1.75016 23.2546 2.25 23.75C2.74774 24.2529 3.34924 24.6411 4.0125 24.8875C4.91571 25.2282 5.8722 25.4059 6.8375 25.4125C8.45 25.5 8.925 25.5 13 25.5C17.075 25.5 17.55 25.5 19.1625 25.4125C20.1278 25.4059 21.0843 25.2282 21.9875 24.8875C22.6508 24.6411 23.2523 24.2529 23.75 23.75C24.2498 23.2546 24.6377 22.6579 24.8875 22C25.2278 21.0924 25.4056 20.1318 25.4125 19.1625C25.5 17.55 25.5 17.075 25.5 13C25.5 8.925 25.5 8.45 25.4125 6.8375ZM22.2375 16.8375C22.1974 17.6089 22.0328 18.3687 21.75 19.0875C21.5073 19.6871 21.1466 20.2318 20.6892 20.6892C20.2318 21.1466 19.6871 21.5073 19.0875 21.75C18.3619 22.017 17.5978 22.1647 16.825 22.1875H9.175C8.40216 22.1647 7.63811 22.017 6.9125 21.75C6.29263 21.5196 5.73285 21.1522 5.275 20.675C4.82208 20.2266 4.47231 19.6848 4.25 19.0875C3.98195 18.3626 3.83826 17.5977 3.825 16.825V9.175C3.83826 8.40228 3.98195 7.63736 4.25 6.9125C4.48035 6.29263 4.84784 5.73285 5.325 5.275C5.77542 4.82453 6.31658 4.47512 6.9125 4.25C7.63811 3.98301 8.40216 3.83526 9.175 3.8125H16.825C17.5978 3.83526 18.3619 3.98301 19.0875 4.25C19.7074 4.48035 20.2672 4.84784 20.725 5.325C21.1779 5.77344 21.5277 6.31517 21.75 6.9125C22.017 7.63811 22.1647 8.40216 22.1875 9.175V13C22.1875 15.575 22.275 15.8375 22.2375 16.825V16.8375ZM20.2375 7.5375C20.0887 7.13373 19.854 6.76705 19.5497 6.46277C19.2454 6.15848 18.8788 5.92383 18.475 5.775C17.9206 5.58283 17.3367 5.48974 16.75 5.5H9.25C8.66033 5.50576 8.07634 5.61579 7.525 5.825C7.12741 5.96707 6.76462 6.19214 6.46073 6.48525C6.15684 6.77836 5.91883 7.1328 5.7625 7.525C5.58097 8.08171 5.49229 8.66449 5.5 9.25V16.75C5.51239 17.339 5.62221 17.9219 5.825 18.475C5.97383 18.8788 6.20848 19.2454 6.51277 19.5497C6.81705 19.854 7.18373 20.0887 7.5875 20.2375C8.12083 20.4336 8.68207 20.5434 9.25 20.5625H16.75C17.3397 20.5567 17.9237 20.4467 18.475 20.2375C18.8788 20.0887 19.2454 19.854 19.5497 19.5497C19.854 19.2454 20.0887 18.8788 20.2375 18.475C20.4467 17.9237 20.5567 17.3397 20.5625 16.75V9.25C20.5629 8.65975 20.4526 8.07465 20.2375 7.525V7.5375ZM13 17.775C12.3735 17.775 11.7532 17.6514 11.1746 17.4113C10.5959 17.1712 10.0704 16.8192 9.62798 16.3757C9.18557 15.9321 8.83503 15.4056 8.59643 14.8264C8.35783 14.2471 8.23586 13.6265 8.2375 13C8.2375 12.0551 8.51787 11.1314 9.04311 10.3459C9.56835 9.56034 10.3148 8.94833 11.1881 8.58729C12.0613 8.22625 13.0221 8.13243 13.9487 8.31769C14.8753 8.50295 15.7261 8.95896 16.3934 9.62801C17.0607 10.2971 17.5144 11.149 17.6973 12.0761C17.8801 13.0032 17.7838 13.9637 17.4204 14.836C17.0571 15.7083 16.4431 16.4532 15.6562 16.9764C14.8694 17.4995 13.9449 17.7775 13 17.775ZM18 9.1625C17.7237 9.13325 17.468 9.00278 17.2821 8.79621C17.0963 8.58965 16.9934 8.32162 16.9934 8.04375C16.9934 7.76588 17.0963 7.49785 17.2821 7.29129C17.468 7.08472 17.7237 6.95425 18 6.925C18.2763 6.95425 18.532 7.08472 18.7179 7.29129C18.9037 7.49785 19.0066 7.76588 19.0066 8.04375C19.0066 8.32162 18.9037 8.58965 18.7179 8.79621C18.532 9.00278 18.2763 9.13325 18 9.1625Z" fill="black"/>
</svg>
