<svg width="54" height="50" viewBox="0 0 54 50" fill="none" xmlns="http://www.w3.org/2000/svg">
<path d="M5.66634 10H0.333008V45C0.333008 47.75 2.73301 50 5.66634 50H42.9997V45H5.66634V10ZM48.333 0H16.333C13.3997 0 10.9997 2.25 10.9997 5V35C10.9997 37.75 13.3997 40 16.333 40H48.333C51.2663 40 53.6663 37.75 53.6663 35V5C53.6663 2.25 51.2663 0 48.333 0ZM32.333 5C36.7597 5 40.333 8.35 40.333 12.5C40.333 16.65 36.7597 20 32.333 20C27.9063 20 24.333 16.65 24.333 12.5C24.333 8.35 27.9063 5 32.333 5ZM48.333 35H16.333V31.25C16.333 26.275 26.9997 23.75 32.333 23.75C37.6663 23.75 48.333 26.275 48.333 31.25V35Z" fill="black"/>
</svg>
