<svg width="30" height="22" viewBox="0 0 38 30" fill="none" xmlns="http://www.w3.org/2000/svg">
<path d="M23.7833 21.9458C23.5899 22.1394 23.4365 22.3692 23.3319 22.622C23.2272 22.8749 23.1734 23.1458 23.1735 23.4195C23.1736 23.6931 23.2276 23.9641 23.3324 24.2168C23.4372 24.4696 23.5908 24.6993 23.7844 24.8927C23.9779 25.0861 24.2077 25.2395 24.4606 25.3442C24.7134 25.4488 24.9844 25.5026 25.258 25.5025C25.5317 25.5024 25.8026 25.4484 26.0554 25.3436C26.3082 25.2388 26.5378 25.0852 26.7313 24.8917L37.1417 14.4667C37.5316 14.0761 37.7506 13.5467 37.7506 12.9948C37.7506 12.4429 37.5316 11.9135 37.1417 11.5229L26.7292 1.11041C26.3385 0.719494 25.8086 0.499768 25.2559 0.499573C24.7033 0.499378 24.1732 0.718728 23.7823 1.10937C23.3914 1.50001 23.1716 2.02995 23.1715 2.58259C23.1713 3.13524 23.3906 3.66533 23.7813 4.05624L30.6458 10.9167H16.9167C12.5866 10.9167 8.42655 12.6019 5.31728 15.6156C2.20801 18.6292 0.393648 22.7346 0.258333 27.0625L0.25 27.5833C0.25 28.1359 0.469493 28.6658 0.860194 29.0565C1.25089 29.4472 1.7808 29.6667 2.33333 29.6667C2.88587 29.6667 3.41577 29.4472 3.80647 29.0565C4.19717 28.6658 4.41667 28.1359 4.41667 27.5833C4.41655 24.3492 5.66993 21.2409 7.91347 18.9115C10.157 16.5821 13.2161 15.2129 16.4479 15.0917L16.9167 15.0833H30.6375L23.7833 21.9458Z" fill="black"/>
</svg>
