<svg width="50" height="29" viewBox="0 0 50 29" fill="none" xmlns="http://www.w3.org/2000/svg">
<path d="M6.79253 12.2533C6.79253 12.8952 6.53212 13.4238 6.01128 13.8392C5.59172 14.1665 4.94792 14.3301 4.07986 14.3301H3.71094V10.1764H4.07986C4.96238 10.1764 5.60619 10.3464 6.01128 10.6862C6.53212 11.0764 6.79253 11.5987 6.79253 12.2533ZM45.3342 11.026C45.3342 11.6806 44.8712 12.0078 43.9453 12.0078H43.533V10.1009H43.967C44.8785 10.1009 45.3342 10.4093 45.3342 11.026ZM8.24653 12.2533C8.24653 11.3218 7.88484 10.5635 7.16146 9.97819C6.43808 9.3929 5.50492 9.10026 4.36198 9.10026H2.30035V15.3874H4.36198C5.43258 15.3874 6.2934 15.1482 6.94444 14.6699C7.8125 14.028 8.24653 13.2224 8.24653 12.2533ZM8.89757 15.3874H10.3082V9.10026H8.89757V15.3874ZM15.842 13.4805C15.842 12.977 15.6937 12.5868 15.3971 12.3099C15.1005 12.033 14.5544 11.7687 13.7587 11.5169C13.3391 11.3911 13.0534 11.2715 12.9015 11.1582C12.7496 11.0449 12.6736 10.9002 12.6736 10.724C12.6736 10.5226 12.7713 10.3558 12.9666 10.2236C13.1619 10.0915 13.4115 10.0254 13.7153 10.0254C14.1348 10.0254 14.5182 10.1953 14.8655 10.5352L15.6033 9.70443C15.0101 9.23872 14.3012 9.00586 13.4766 9.00586C12.84 9.00586 12.3047 9.17893 11.8707 9.52507C11.4366 9.8712 11.2196 10.296 11.2196 10.7995C11.2196 11.24 11.3498 11.5893 11.6102 11.8473C11.8707 12.1054 12.3336 12.3351 12.9991 12.5365C13.5344 12.7001 13.86 12.8197 13.9757 12.8952C14.2506 13.0462 14.388 13.2602 14.388 13.5371C14.388 13.7888 14.2867 13.9997 14.0842 14.1696C13.8817 14.3395 13.6212 14.4245 13.303 14.4245C12.6085 14.4245 12.0949 14.1476 11.7622 13.5938L10.8507 14.349C11.4873 15.1545 12.3192 15.5573 13.3464 15.5573C14.0842 15.5573 14.6846 15.3653 15.1476 14.9814C15.6105 14.5975 15.842 14.0972 15.842 13.4805ZM21.875 15.1797V13.7259C21.3397 14.1916 20.7755 14.4245 20.1823 14.4245C19.4734 14.4245 18.8911 14.2199 18.4353 13.8109C17.9796 13.4018 17.7517 12.8826 17.7517 12.2533C17.7517 11.6491 17.9796 11.1362 18.4353 10.7145C18.8911 10.2929 19.4517 10.082 20.1172 10.082C20.7393 10.082 21.3252 10.3212 21.875 10.7995V9.3457C21.2963 9.09397 20.7176 8.9681 20.1389 8.9681C19.0683 8.9681 18.1604 9.28592 17.4154 9.92155C16.6703 10.5572 16.2977 11.3344 16.2977 12.2533C16.2977 13.1721 16.6667 13.9493 17.4045 14.585C18.1424 15.2206 19.0466 15.5384 20.1172 15.5384C20.7248 15.5384 21.3108 15.4188 21.875 15.1797ZM48.6111 26.5833V16.6335C47.6707 17.1369 46.6254 17.6656 45.4753 18.2194C44.3251 18.7732 42.6071 19.5096 40.3212 20.4284C38.0353 21.3472 35.6518 22.2126 33.1706 23.0244C30.6894 23.8363 27.6693 24.6827 24.1102 25.5638C20.5512 26.4449 16.9054 27.1875 13.1727 27.7917H47.2222C47.5984 27.7917 47.9239 27.6721 48.1988 27.4329C48.4737 27.1938 48.6111 26.9106 48.6111 26.5833ZM30.1432 12.291C30.1432 11.347 29.7598 10.5414 28.9931 9.87435C28.2263 9.20725 27.3003 8.8737 26.2153 8.8737C25.1302 8.8737 24.2043 9.20725 23.4375 9.87435C22.6707 10.5414 22.2873 11.347 22.2873 12.291C22.2873 13.235 22.6707 14.0406 23.4375 14.7077C24.2043 15.3748 25.1302 15.7083 26.2153 15.7083C27.3003 15.7083 28.2263 15.3748 28.9931 14.7077C29.7598 14.0406 30.1432 13.235 30.1432 12.291ZM33.4418 15.5573L36.5668 9.10026H35.026L33.0729 13.3294L31.1415 9.10026H29.6007L32.6823 15.5573H33.4418ZM37.1962 15.3874H41.1892V14.3301H38.6068V12.6309H41.1024V11.5736H38.6068V10.1764H41.1892V9.10026H37.1962V15.3874ZM45.6814 15.3874H47.4175L45.1389 12.7441C46.2384 12.5428 46.7882 11.9512 46.7882 10.9694C46.7882 10.3778 46.5639 9.9184 46.1154 9.59115C45.667 9.26389 45.0376 9.10026 44.2274 9.10026H42.1224V15.3874H43.533V12.8763H43.7283L45.6814 15.3874ZM50 2.52995V26.4701C50 27.1749 49.7215 27.7728 49.1645 28.2637C48.6075 28.7546 47.9311 29 47.1354 29H2.86458C2.06887 29 1.39251 28.7546 0.835503 28.2637C0.278501 27.7728 0 27.1749 0 26.4701V2.52995C0 1.82509 0.278501 1.22721 0.835503 0.736328C1.39251 0.245443 2.06887 0 2.86458 0H47.1354C47.9311 0 48.6075 0.245443 49.1645 0.736328C49.7215 1.22721 50 1.82509 50 2.52995Z" fill="white"/>
</svg>
