<svg width="40" height="32" viewBox="0 0 40 32" fill="none" xmlns="http://www.w3.org/2000/svg">
<path d="M32.6458 14.0624C32.6458 14.0624 33.1736 16.6458 33.2917 17.1874H30.9722C31.2014 16.5694 32.0833 14.1666 32.0833 14.1666C32.0694 14.1874 32.3125 13.5347 32.4514 13.1319L32.6458 14.0624ZM40 3.5555V27.9999C40 29.8402 38.5069 31.3333 36.6667 31.3333H3.33333C1.49306 31.3333 0 29.8402 0 27.9999V3.5555C0 1.71522 1.49306 0.222168 3.33333 0.222168H36.6667C38.5069 0.222168 40 1.71522 40 3.5555ZM10.5903 20.9999L14.9792 10.2222H12.0278L9.29861 17.5833L9 16.0902L8.02778 11.1319C7.86806 10.4444 7.375 10.2499 6.76389 10.2222H2.27083L2.22222 10.4374C3.31944 10.7152 4.29861 11.118 5.15278 11.6249L7.63889 20.9999H10.5903ZM17.1458 21.0138L18.8958 10.2222H16.1042L14.3611 21.0138H17.1458ZM26.8611 17.4861C26.875 16.2569 26.125 15.3194 24.5208 14.5486C23.5417 14.0555 22.9444 13.7222 22.9444 13.2152C22.9583 12.7569 23.4514 12.2847 24.5486 12.2847C25.4583 12.2638 26.125 12.4791 26.625 12.6944L26.875 12.8124L27.2569 10.4791C26.7083 10.2638 25.8333 10.0208 24.7569 10.0208C22 10.0208 20.0625 11.493 20.0486 13.5902C20.0278 15.1388 21.4375 15.9999 22.4931 16.5208C23.5694 17.0486 23.9375 17.3958 23.9375 17.8611C23.9236 18.5833 23.0625 18.9166 22.2639 18.9166C21.1528 18.9166 20.5556 18.743 19.6458 18.3402L19.2778 18.1666L18.8889 20.5902C19.5417 20.8888 20.75 21.1527 22 21.1666C24.9306 21.1736 26.8403 19.7222 26.8611 17.4861ZM36.6667 21.0138L34.4167 10.2222H32.2569C31.5903 10.2222 31.0833 10.4166 30.7986 11.118L26.6528 21.0138H29.5833C29.5833 21.0138 30.0625 19.6805 30.1667 19.3958H33.75C33.8333 19.7777 34.0833 21.0138 34.0833 21.0138H36.6667Z" fill="white"/>
</svg>
