<svg width="60" height="57" viewBox="0 0 60 57" fill="none" xmlns="http://www.w3.org/2000/svg">
<path d="M2 0.75C1.46957 0.75 0.960859 0.947544 0.585786 1.29917C0.210714 1.65081 0 2.12772 0 2.625C0 3.12228 0.210714 3.59919 0.585786 3.95083C0.960859 4.30246 1.46957 4.5 2 4.5H6.44L8.044 10.5263L14.036 40.47C14.1218 40.8997 14.365 41.2877 14.7236 41.5671C15.0823 41.8465 15.5337 41.9996 16 42H20C17.8783 42 15.8434 42.7902 14.3431 44.1967C12.8429 45.6032 12 47.5109 12 49.5C12 51.4891 12.8429 53.3968 14.3431 54.8033C15.8434 56.2098 17.8783 57 20 57C22.1217 57 24.1566 56.2098 25.6569 54.8033C27.1571 53.3968 28 51.4891 28 49.5C28 47.5109 27.1571 45.6032 25.6569 44.1967C24.1566 42.7902 22.1217 42 20 42H48C45.8783 42 43.8434 42.7902 42.3431 44.1967C40.8429 45.6032 40 47.5109 40 49.5C40 51.4891 40.8429 53.3968 42.3431 54.8033C43.8434 56.2098 45.8783 57 48 57C50.1217 57 52.1566 56.2098 53.6568 54.8033C55.1571 53.3968 56 51.4891 56 49.5C56 47.5109 55.1571 45.6032 53.6568 44.1967C52.1566 42.7902 50.1217 42 48 42H52C52.4663 41.9996 52.9177 41.8465 53.2764 41.5671C53.635 41.2877 53.8782 40.8997 53.964 40.47L59.964 10.47C60.018 10.1994 60.0078 9.92094 59.9341 9.65444C59.8604 9.38794 59.725 9.13993 59.5376 8.92801C59.3501 8.7161 59.1151 8.5455 58.8494 8.42832C58.5837 8.31114 58.2937 8.25026 58 8.25H11.56L9.94 2.17125C9.83204 1.76544 9.58245 1.40512 9.23092 1.14759C8.8794 0.890065 8.44612 0.750116 8 0.75H2ZM24 49.5C24 50.4946 23.5786 51.4484 22.8284 52.1516C22.0783 52.8549 21.0609 53.25 20 53.25C18.9391 53.25 17.9217 52.8549 17.1716 52.1516C16.4214 51.4484 16 50.4946 16 49.5C16 48.5054 16.4214 47.5516 17.1716 46.8484C17.9217 46.1451 18.9391 45.75 20 45.75C21.0609 45.75 22.0783 46.1451 22.8284 46.8484C23.5786 47.5516 24 48.5054 24 49.5ZM52 49.5C52 50.4946 51.5786 51.4484 50.8284 52.1516C50.0783 52.8549 49.0609 53.25 48 53.25C46.9391 53.25 45.9217 52.8549 45.1716 52.1516C44.4214 51.4484 44 50.4946 44 49.5C44 48.5054 44.4214 47.5516 45.1716 46.8484C45.9217 46.1451 46.9391 45.75 48 45.75C49.0609 45.75 50.0783 46.1451 50.8284 46.8484C51.5786 47.5516 52 48.5054 52 49.5ZM45.416 20.8275L33.416 32.0775C33.2302 32.2521 33.0095 32.3906 32.7665 32.4852C32.5236 32.5797 32.2631 32.6284 32 32.6284C31.7369 32.6284 31.4764 32.5797 31.2335 32.4852C30.9905 32.3906 30.7698 32.2521 30.584 32.0775L24.584 26.4525C24.398 26.2782 24.2505 26.0712 24.1499 25.8434C24.0493 25.6157 23.9975 25.3715 23.9975 25.125C23.9975 24.8785 24.0493 24.6343 24.1499 24.4066C24.2505 24.1788 24.398 23.9718 24.584 23.7975C24.77 23.6232 24.9907 23.4849 25.2337 23.3905C25.4766 23.2962 25.737 23.2476 26 23.2476C26.263 23.2476 26.5234 23.2962 26.7663 23.3905C27.0093 23.4849 27.23 23.6232 27.416 23.7975L32 28.0988L42.584 18.1725C42.7699 17.9982 42.9907 17.8599 43.2337 17.7655C43.4766 17.6712 43.737 17.6226 44 17.6226C44.263 17.6226 44.5234 17.6712 44.7663 17.7655C45.0093 17.8599 45.23 17.9982 45.416 18.1725C45.6019 18.3468 45.7495 18.5538 45.8501 18.7816C45.9507 19.0093 46.0025 19.2535 46.0025 19.5C46.0025 19.7465 45.9507 19.9907 45.8501 20.2184C45.7495 20.4462 45.6019 20.6532 45.416 20.8275Z" fill="black"/>
</svg>
