<svg width="34" height="35" viewBox="0 0 34 35" fill="none" xmlns="http://www.w3.org/2000/svg">
<path d="M30.6667 30.8333C30.6667 32.6833 29.1834 34.1667 27.3334 34.1667C26.4493 34.1667 25.6015 33.8155 24.9763 33.1904C24.3512 32.5652 24 31.7174 24 30.8333C24 28.9833 25.4834 27.5 27.3334 27.5C28.2174 27.5 29.0653 27.8512 29.6904 28.4763C30.3155 29.1014 30.6667 29.9493 30.6667 30.8333ZM10.6667 27.5C8.81669 27.5 7.33335 28.9833 7.33335 30.8333C7.33335 31.7174 7.68454 32.5652 8.30966 33.1904C8.93479 33.8155 9.78263 34.1667 10.6667 34.1667C12.5167 34.1667 14 32.6833 14 30.8333C14 28.9833 12.5167 27.5 10.6667 27.5ZM11 21.8833L10.95 22.0833C10.95 22.3167 11.1334 22.5 11.3667 22.5H30.6667V25.8333H10.6667C9.78263 25.8333 8.93479 25.4822 8.30966 24.857C7.68454 24.2319 7.33335 23.3841 7.33335 22.5C7.33335 21.9167 7.48335 21.3667 7.73335 20.9L10 16.8167L4.00002 4.16668H0.666687V0.833344H6.11669L7.68335 4.16668H32.3334C33.25 4.16668 34 4.91668 34 5.83334C34 6.11668 33.9167 6.40001 33.8 6.66668L27.8334 17.45C27.2667 18.4667 26.1667 19.1667 24.9167 19.1667H12.5L11 21.8833M13.1667 15.8333H15.6667V12.5H11.6L13.1667 15.8333ZM17.3334 12.5V15.8333H22.3334V12.5H17.3334ZM22.3334 10.8333V7.50001H17.3334V10.8333H22.3334ZM27.5167 12.5H24V15.8333H25.6667L27.5167 12.5ZM30.3 7.50001H24V10.8333H28.45L30.3 7.50001ZM9.23335 7.50001L10.8 10.8333H15.6667V7.50001H9.23335Z" fill="white"/>
</svg>
