<svg width="34" height="34" viewBox="0 0 34 34" fill="none" xmlns="http://www.w3.org/2000/svg">
<path d="M29.9915 30.0333C29.9915 31.8648 28.523 33.3333 26.6915 33.3333C25.8163 33.3333 24.9769 32.9857 24.3581 32.3668C23.7392 31.7479 23.3915 30.9086 23.3915 30.0333C23.3915 28.2018 24.86 26.7333 26.6915 26.7333C27.5667 26.7333 28.4061 27.081 29.025 27.6999C29.6438 28.3188 29.9915 29.1581 29.9915 30.0333ZM10.1915 26.7333C8.36 26.7333 6.8915 28.2018 6.8915 30.0333C6.8915 30.9086 7.23918 31.7479 7.85805 32.3668C8.47692 32.9857 9.31629 33.3333 10.1915 33.3333C12.023 33.3333 13.4915 31.8648 13.4915 30.0333C13.4915 28.2018 12.023 26.7333 10.1915 26.7333ZM10.5215 21.1728L10.472 21.3708C10.472 21.6018 10.6535 21.7833 10.8845 21.7833H29.9915V25.0833H10.1915C9.31629 25.0833 8.47692 24.7357 7.85805 24.1168C7.23918 23.4979 6.8915 22.6586 6.8915 21.7833C6.8915 21.2058 7.04 20.6613 7.2875 20.1993L9.5315 16.1568L3.5915 3.63334H0.291504V0.333344H5.687L7.238 3.63334H31.6415C32.549 3.63334 33.2915 4.37584 33.2915 5.28334C33.2915 5.56384 33.209 5.84434 33.0935 6.10834L27.1865 16.7838C26.6255 17.7903 25.5365 18.4833 24.299 18.4833H12.0065L10.5215 21.1728ZM12.6665 15.1833H15.1415V11.8833H11.1155L12.6665 15.1833ZM16.7915 11.8833V15.1833H21.7415V11.8833H16.7915ZM21.7415 10.2333V6.93334H16.7915V10.2333H21.7415ZM26.873 11.8833H23.3915V15.1833H25.0415L26.873 11.8833ZM29.6285 6.93334H23.3915V10.2333H27.797L29.6285 6.93334ZM8.7725 6.93334L10.3235 10.2333H15.1415V6.93334H8.7725Z" fill="black"/>
</svg>
