<svg width="21" height="21" viewBox="0 0 21 21" fill="none" xmlns="http://www.w3.org/2000/svg">
<path d="M6.2915 16.75C5.14567 16.75 4.21859 17.6875 4.21859 18.8333C4.21859 19.9792 5.14567 20.9167 6.2915 20.9167C7.43734 20.9167 8.37484 19.9792 8.37484 18.8333C8.37484 17.6875 7.43734 16.75 6.2915 16.75ZM16.7082 16.75C15.5623 16.75 14.6353 17.6875 14.6353 18.8333C14.6353 19.9792 15.5623 20.9167 16.7082 20.9167C17.854 20.9167 18.7915 19.9792 18.7915 18.8333C18.7915 17.6875 17.854 16.75 16.7082 16.75ZM7.43734 11.5417H16.4582L20.8748 3.16668L19.0519 2.16668L15.1978 9.45834H7.88525L3.44775 0.0833435H0.0415039V2.16668H2.12484L5.87484 10.0729L2.76025 15.7083H18.7915V13.625H6.2915L7.43734 11.5417ZM11.4998 0.0833435L15.6665 4.25001L11.4998 8.41668L10.0311 6.94793L11.6769 5.29168H7.33317V3.20834H11.6769L10.0207 1.55209L11.4998 0.0833435Z" fill="white"/>
</svg>
