<svg width="26" height="26" viewBox="0 0 26 26" fill="none" xmlns="http://www.w3.org/2000/svg">
<path d="M13 25.5C11.2917 25.5 9.67708 25.1717 8.15625 24.515C6.63542 23.8592 5.3075 22.9633 4.1725 21.8275C3.03667 20.6925 2.14083 19.3646 1.485 17.8438C0.828333 16.3229 0.5 14.7083 0.5 13C0.5 11.2708 0.828333 9.65125 1.485 8.14125C2.14083 6.63042 3.03667 5.3075 4.1725 4.1725C5.3075 3.03667 6.63542 2.14042 8.15625 1.48375C9.67708 0.827917 11.2917 0.5 13 0.5C14.7292 0.5 16.3488 0.827917 17.8587 1.48375C19.3696 2.14042 20.6925 3.03667 21.8275 4.1725C22.9633 5.3075 23.8592 6.63042 24.515 8.14125C25.1717 9.65125 25.5 11.2708 25.5 13V14.8125C25.5 16.0417 25.0783 17.0883 24.235 17.9525C23.3908 18.8175 22.3542 19.25 21.125 19.25C20.375 19.25 19.6771 19.0833 19.0312 18.75C18.3854 18.4167 17.8542 17.9792 17.4375 17.4375C16.875 18 16.2137 18.4429 15.4538 18.7663C14.6929 19.0888 13.875 19.25 13 19.25C11.2708 19.25 9.79708 18.6404 8.57875 17.4212C7.35958 16.2029 6.75 14.7292 6.75 13C6.75 11.2708 7.35958 9.79667 8.57875 8.5775C9.79708 7.35917 11.2708 6.75 13 6.75C14.7292 6.75 16.2033 7.35917 17.4225 8.5775C18.6408 9.79667 19.25 11.2708 19.25 13V14.8125C19.25 15.4167 19.4375 15.8904 19.8125 16.2337C20.1875 16.5779 20.625 16.75 21.125 16.75C21.625 16.75 22.0625 16.5779 22.4375 16.2337C22.8125 15.8904 23 15.4167 23 14.8125V13C23 10.2708 22.0154 7.92167 20.0462 5.9525C18.0779 3.98417 15.7292 3 13 3C10.2708 3 7.92167 3.98417 5.9525 5.9525C3.98417 7.92167 3 10.2708 3 13C3 15.7292 3.98417 18.0779 5.9525 20.0462C7.92167 22.0154 10.2708 23 13 23H19.25V25.5H13ZM13 16.75C14.0417 16.75 14.9271 16.3854 15.6562 15.6562C16.3854 14.9271 16.75 14.0417 16.75 13C16.75 11.9583 16.3854 11.0729 15.6562 10.3438C14.9271 9.61458 14.0417 9.25 13 9.25C11.9583 9.25 11.0729 9.61458 10.3438 10.3438C9.61458 11.0729 9.25 11.9583 9.25 13C9.25 14.0417 9.61458 14.9271 10.3438 15.6562C11.0729 16.3854 11.9583 16.75 13 16.75Z" fill="white"/>
</svg>
