<svg width="20" height="13" viewBox="0 0 20 13" fill="none" xmlns="http://www.w3.org/2000/svg">
<path d="M12.2656 11.9218L18.5344 7.30778C18.6856 7.21838 18.811 7.0911 18.8981 6.93848C18.9852 6.78586 19.031 6.61318 19.031 6.43747C19.031 6.26176 18.9852 6.08908 18.8981 5.93646C18.811 5.78384 18.6856 5.65656 18.5344 5.56716L12.2672 0.953094C12.1141 0.862867 11.9399 0.814785 11.7622 0.813738C11.5845 0.812691 11.4097 0.858715 11.2556 0.947132C11.1014 1.03555 10.9734 1.1632 10.8846 1.31712C10.7959 1.47103 10.7494 1.64571 10.75 1.82341V3.39059H0.125V9.48434H10.75V11.0515C10.75 11.8406 11.6016 12.314 12.2656 11.9218Z" fill="white"/>
</svg>
