<svg width="38" height="50" viewBox="0 0 38 50" fill="none" xmlns="http://www.w3.org/2000/svg">
<path d="M19.0007 23.75C17.2325 23.75 15.5368 23.0915 14.2866 21.9194C13.0364 20.7473 12.334 19.1576 12.334 17.5C12.334 15.8424 13.0364 14.2527 14.2866 13.0806C15.5368 11.9085 17.2325 11.25 19.0007 11.25C20.7688 11.25 22.4645 11.9085 23.7147 13.0806C24.9649 14.2527 25.6673 15.8424 25.6673 17.5C25.6673 18.3208 25.4949 19.1335 25.1598 19.8918C24.8248 20.6501 24.3338 21.3391 23.7147 21.9194C23.0956 22.4998 22.3607 22.9602 21.5519 23.2742C20.743 23.5883 19.8761 23.75 19.0007 23.75ZM19.0007 0C14.0499 0 9.302 1.84374 5.80132 5.12563C2.30065 8.40752 0.333984 12.8587 0.333984 17.5C0.333984 30.625 19.0007 50 19.0007 50C19.0007 50 37.6673 30.625 37.6673 17.5C37.6673 12.8587 35.7007 8.40752 32.2 5.12563C28.6993 1.84374 23.9514 0 19.0007 0Z" fill="white"/>
</svg>
