<svg width="38" height="50" viewBox="0 0 38 50" fill="none" xmlns="http://www.w3.org/2000/svg">
<path d="M18.9997 23.75C17.2316 23.75 15.5359 23.0915 14.2856 21.9194C13.0354 20.7473 12.333 19.1576 12.333 17.5C12.333 15.8424 13.0354 14.2527 14.2856 13.0806C15.5359 11.9085 17.2316 11.25 18.9997 11.25C20.7678 11.25 22.4635 11.9085 23.7137 13.0806C24.964 14.2527 25.6663 15.8424 25.6663 17.5C25.6663 18.3208 25.4939 19.1335 25.1589 19.8918C24.8238 20.6501 24.3328 21.3391 23.7137 21.9194C23.0947 22.4998 22.3597 22.9602 21.5509 23.2742C20.7421 23.5883 19.8752 23.75 18.9997 23.75ZM18.9997 0C14.049 0 9.30103 1.84374 5.80035 5.12563C2.29967 8.40752 0.333008 12.8587 0.333008 17.5C0.333008 30.625 18.9997 50 18.9997 50C18.9997 50 37.6663 30.625 37.6663 17.5C37.6663 12.8587 35.6997 8.40752 32.199 5.12563C28.6983 1.84374 23.9504 0 18.9997 0Z" fill="black"/>
</svg>
