<svg width="24" height="27" viewBox="0 0 24 27" fill="none" xmlns="http://www.w3.org/2000/svg">
<path d="M23.25 21.25V22.5H0.75V21.25L3.25 18.75V11.25C3.25 7.375 5.7875 3.9625 9.5 2.8625V2.5C9.5 1.83696 9.76339 1.20107 10.2322 0.732233C10.7011 0.263392 11.337 0 12 0C12.663 0 13.2989 0.263392 13.7678 0.732233C14.2366 1.20107 14.5 1.83696 14.5 2.5V2.8625C18.2125 3.9625 20.75 7.375 20.75 11.25V18.75L23.25 21.25ZM14.5 23.75C14.5 24.413 14.2366 25.0489 13.7678 25.5178C13.2989 25.9866 12.663 26.25 12 26.25C11.337 26.25 10.7011 25.9866 10.2322 25.5178C9.76339 25.0489 9.5 24.413 9.5 23.75" fill="white"/>
</svg>
