<svg width="57" height="45" viewBox="0 0 57 45" fill="none" xmlns="http://www.w3.org/2000/svg">
<path d="M29.6667 12.5H8.33333C6.91885 12.5 5.56229 13.0268 4.5621 13.9645C3.5619 14.9021 3 16.1739 3 17.5L3 22.5M3 22.5L3 37.5C3 38.8261 3.5619 40.0979 4.5621 41.0355C5.56229 41.9732 6.91885 42.5 8.33333 42.5H40.3333C41.7478 42.5 43.1044 41.9732 44.1046 41.0355C45.1048 40.0979 45.6667 38.8261 45.6667 37.5V20M3 22.5H31M13.6667 32.5H21.6667" stroke="black" stroke-width="5" stroke-linecap="round" stroke-linejoin="round"/>
<path d="M53.6663 2.5L34.733 2.5C32.2812 2.50049 29.8536 2.95379 27.5887 3.834C25.3238 4.71422 23.2661 6.00411 21.533 7.63L16.333 12.505L33.8983 12.505C36.2717 12.505 37.4637 15.1975 35.7837 16.7725L32.333 20.01C30.9997 21.26 30.1997 24.2625 32.333 26.265C34.4663 28.265 37.6663 27.515 38.9997 26.265L53.6663 12.5075" stroke="black" stroke-width="5" stroke-linecap="round" stroke-linejoin="round"/>
</svg>
