<svg width="30" height="31" viewBox="0 0 30 31" fill="none" xmlns="http://www.w3.org/2000/svg">
<path d="M15 24.5C11.875 24.5 9.1125 22.9 7.5 20.5C7.5375 18 12.5 16.625 15 16.625C17.5 16.625 22.4625 18 22.5 20.5C21.6736 21.7305 20.5573 22.7389 19.2495 23.4365C17.9416 24.134 16.4823 24.4992 15 24.5M15 6.75C15.9946 6.75 16.9484 7.14509 17.6517 7.84835C18.3549 8.55161 18.75 9.50544 18.75 10.5C18.75 11.4946 18.3549 12.4484 17.6517 13.1517C16.9484 13.8549 15.9946 14.25 15 14.25C14.0054 14.25 13.0516 13.8549 12.3483 13.1517C11.6451 12.4484 11.25 11.4946 11.25 10.5C11.25 9.50544 11.6451 8.55161 12.3483 7.84835C13.0516 7.14509 14.0054 6.75 15 6.75M15 3C13.3585 3 11.733 3.32332 10.2165 3.95151C8.69989 4.57969 7.3219 5.50043 6.16117 6.66117C3.81696 9.00537 2.5 12.1848 2.5 15.5C2.5 18.8152 3.81696 21.9946 6.16117 24.3388C7.3219 25.4996 8.69989 26.4203 10.2165 27.0485C11.733 27.6767 13.3585 28 15 28C18.3152 28 21.4946 26.683 23.8388 24.3388C26.183 21.9946 27.5 18.8152 27.5 15.5C27.5 8.5875 21.875 3 15 3Z" fill="green"/>
</svg>
