<svg width="36" height="34" viewBox="0 0 36 34" fill="none" xmlns="http://www.w3.org/2000/svg">
<path d="M34.7812 30.3125C32.5897 26.5339 29.1875 23.6051 25.1249 22C27.1188 20.5046 28.5917 18.4197 29.3348 16.0407C30.0779 13.6618 30.0537 11.1093 29.2656 8.7448C28.4774 6.38034 26.9653 4.3238 24.9434 2.8665C22.9215 1.40919 20.4923 0.625 17.9999 0.625C15.5076 0.625 13.0784 1.40919 11.0565 2.8665C9.03461 4.3238 7.52249 6.38034 6.73433 8.7448C5.94618 11.1093 5.92196 13.6618 6.6651 16.0407C7.40824 18.4197 8.88106 20.5046 10.8749 22C6.8124 23.6051 3.41019 26.5339 1.2187 30.3125C0.970057 30.7435 0.902805 31.2556 1.03174 31.7361C1.16067 32.2167 1.47522 32.6264 1.9062 32.875C2.33717 33.1236 2.84927 33.1909 3.32983 33.062C3.8104 32.933 4.22006 32.6185 4.4687 32.1875C5.84013 29.8124 7.81257 27.8401 10.1878 26.4688C12.563 25.0976 15.2573 24.3757 17.9999 24.3757C20.7426 24.3757 23.4369 25.0976 25.8121 26.4688C28.1873 27.8401 30.1598 29.8124 31.5312 32.1875C31.6971 32.4717 31.9342 32.7076 32.2192 32.872C32.5042 33.0364 32.8272 33.1236 33.1562 33.125C33.4855 33.1276 33.8094 33.0413 34.0937 32.875C34.3072 32.752 34.4944 32.5881 34.6445 32.3927C34.7946 32.1973 34.9047 31.9742 34.9686 31.7362C35.0324 31.4983 35.0487 31.25 35.0166 31.0057C34.9844 30.7614 34.9044 30.5259 34.7812 30.3125ZM9.87495 12.5C9.87495 10.893 10.3515 9.32214 11.2443 7.98599C12.137 6.64984 13.406 5.60844 14.8906 4.99348C16.3753 4.37852 18.009 4.21761 19.5851 4.53112C21.1612 4.84462 22.6089 5.61846 23.7452 6.75476C24.8815 7.89106 25.6553 9.3388 25.9688 10.9149C26.2823 12.491 26.1214 14.1247 25.5065 15.6093C24.8915 17.094 23.8501 18.3629 22.514 19.2557C21.1778 20.1485 19.6069 20.625 17.9999 20.625C15.8451 20.625 13.7784 19.769 12.2547 18.2452C10.731 16.7215 9.87495 14.6549 9.87495 12.5Z" fill="white"/>
</svg>
