<svg width="30" height="30" viewBox="0 0 30 30" fill="none" xmlns="http://www.w3.org/2000/svg">
<path d="M27.5859 24.6094C25.9423 21.7754 23.3907 19.5788 20.3437 18.375C21.8392 17.2534 22.9438 15.6898 23.5011 13.9056C24.0585 12.1213 24.0403 10.2069 23.4492 8.4336C22.8581 6.66025 21.724 5.11785 20.2076 4.02487C18.6911 2.9319 16.8693 2.34375 15 2.34375C13.1307 2.34375 11.3088 2.9319 9.79242 4.02487C8.27599 5.11785 7.14189 6.66025 6.55078 8.4336C5.95967 10.2069 5.9415 12.1213 6.49885 13.9056C7.05621 15.6898 8.16083 17.2534 9.65624 18.375C6.60933 19.5788 4.05767 21.7754 2.41405 24.6094C2.22757 24.9326 2.17713 25.3167 2.27383 25.6771C2.37053 26.0375 2.60645 26.3448 2.92968 26.5312C3.25291 26.7177 3.63698 26.7682 3.99741 26.6715C4.35783 26.5748 4.66507 26.3389 4.85155 26.0156C5.88013 24.2343 7.35946 22.7551 9.14087 21.7266C10.9223 20.6982 12.943 20.1568 15 20.1568C17.057 20.1568 19.0777 20.6982 20.8591 21.7266C22.6405 22.7551 24.1199 24.2343 25.1484 26.0156C25.2728 26.2287 25.4507 26.4057 25.6644 26.529C25.8782 26.6523 26.1204 26.7177 26.3672 26.7187C26.6142 26.7207 26.8571 26.6559 27.0703 26.5312C27.2304 26.439 27.3708 26.3161 27.4834 26.1695C27.596 26.023 27.6786 25.8557 27.7265 25.6772C27.7743 25.4987 27.7866 25.3125 27.7625 25.1293C27.7384 24.9461 27.6784 24.7694 27.5859 24.6094ZM8.90624 11.25C8.90624 10.0448 9.26363 8.86661 9.93322 7.86449C10.6028 6.86238 11.5545 6.08133 12.668 5.62011C13.7815 5.15889 15.0068 5.03821 16.1888 5.27334C17.3709 5.50847 18.4567 6.08884 19.3089 6.94107C20.1611 7.79329 20.7415 8.8791 20.9767 10.0612C21.2118 11.2432 21.0911 12.4685 20.6299 13.582C20.1687 14.6955 19.3876 15.6472 18.3855 16.3168C17.3834 16.9864 16.2052 17.3437 15 17.3437C13.3838 17.3437 11.8339 16.7017 10.6911 15.5589C9.54826 14.4161 8.90624 12.8662 8.90624 11.25Z" fill="#049D00"/>
</svg>
