<svg width="22" height="22" viewBox="0 0 22 22" fill="none" xmlns="http://www.w3.org/2000/svg">
<path d="M11.0003 21.8333C5.01708 21.8333 0.166992 16.9832 0.166992 11C0.166992 5.01674 5.01708 0.166656 11.0003 0.166656C16.9836 0.166656 21.8337 5.01674 21.8337 11C21.8337 16.9832 16.9836 21.8333 11.0003 21.8333ZM11.0003 19.6667C13.2989 19.6667 15.5033 18.7536 17.1286 17.1283C18.7539 15.5029 19.667 13.2985 19.667 11C19.667 8.70145 18.7539 6.49705 17.1286 4.87173C15.5033 3.24642 13.2989 2.33332 11.0003 2.33332C8.70178 2.33332 6.49738 3.24642 4.87207 4.87173C3.24675 6.49705 2.33366 8.70145 2.33366 11C2.33366 13.2985 3.24675 15.5029 4.87207 17.1283C6.49738 18.7536 8.70178 19.6667 11.0003 19.6667ZM9.91699 14.25H12.0837V16.4167H9.91699V14.25ZM12.0837 12.4679V13.1667H9.91699V11.5417C9.91699 11.2543 10.0311 10.9788 10.2343 10.7756C10.4375 10.5725 10.713 10.4583 11.0003 10.4583C11.3081 10.4583 11.6095 10.3709 11.8695 10.2063C12.1295 10.0416 12.3374 9.80655 12.4691 9.52837C12.6007 9.25019 12.6506 8.94035 12.6131 8.6349C12.5755 8.32945 12.4519 8.04096 12.2568 7.80298C12.0617 7.565 11.803 7.38732 11.5108 7.29062C11.2187 7.19393 10.905 7.18218 10.6065 7.25675C10.3079 7.33133 10.0366 7.48916 9.82422 7.71187C9.61184 7.93459 9.46706 8.21304 9.40674 8.51482L7.28124 8.08907C7.41301 7.4305 7.71729 6.81873 8.16299 6.31629C8.60868 5.81386 9.1798 5.43879 9.81796 5.22942C10.4561 5.02005 11.1384 4.9839 11.7951 5.12466C12.4519 5.26541 13.0594 5.57803 13.5557 6.03055C14.052 6.48307 14.4192 7.05926 14.6199 7.70023C14.8205 8.34119 14.8473 9.02393 14.6976 9.67866C14.5479 10.3334 14.227 10.9366 13.7677 11.4267C13.3085 11.9167 12.7273 12.2761 12.0837 12.4679Z" fill="#858585"/>
</svg>
