<svg width="52" height="58" viewBox="0 0 52 58" fill="none" xmlns="http://www.w3.org/2000/svg">
<path d="M51.6418 30.9969C51.545 30.8334 51.4301 30.68 51.2988 30.5394C47.1938 23.5259 43.4998 22.4309 40.5318 21.5534C39.4758 21.2412 38.4778 20.9469 37.5698 20.4116C33.1718 17.8166 31.2048 14.3178 29.6228 11.5053C29.4098 11.1256 29.2038 10.7572 28.9978 10.4047C26.1208 5.45844 21.5518 2.735 16.1348 2.735C15.0268 2.735 13.8828 2.84937 12.7298 3.0725C11.1118 0.849687 8.43077 0.223437 6.01377 1.60812C3.59477 2.99281 2.82577 5.52594 3.99077 8.04875C-0.621231 13.2444 -1.27223 19.6231 2.22777 25.6409C2.43377 25.9944 2.65177 26.3591 2.87777 26.735C4.54177 29.5025 6.61277 32.9469 6.67677 38.0366C6.69077 39.0987 6.44777 40.1094 6.18877 41.1809C5.47977 44.1237 4.61077 47.7819 8.52477 54.6547C8.58077 54.9294 8.67577 55.1891 8.81877 55.4328C9.47277 56.5559 10.8558 57.125 12.9318 57.125C17.6538 57.125 25.6998 54.1962 33.9278 49.4844C44.2798 43.5537 54.0068 35.06 51.6418 30.9969ZM24.9898 50.6703C24.9888 50.6722 24.9838 50.6722 24.9818 50.6741H24.9758C21.3228 51.3247 17.8088 49.415 16.2858 46.2406C18.1018 44.4678 24.5268 39.7747 29.4468 37.3578C30.5164 38.4941 31.2248 39.8887 31.4918 41.3834C32.2788 45.7278 29.3718 49.8838 24.9898 50.6703ZM47.5328 29.3047C42.8078 29.3047 34.7618 32.2334 26.5328 36.9453C18.7548 41.4012 11.3298 47.3047 9.12177 51.6894C6.82277 46.8106 7.44777 44.1538 8.06777 41.5822C8.33877 40.4562 8.61977 39.2919 8.60377 38.0159C8.53477 32.4575 6.32777 28.7881 4.55377 25.8397C4.33806 25.4842 4.12505 25.1274 3.91477 24.7691C0.679769 19.205 1.36777 13.5312 5.85277 8.79312L6.30677 8.315L5.97877 7.7525C5.57077 7.04844 4.43477 4.63625 7.01477 3.15969C7.58177 2.83437 8.14077 2.66937 8.67477 2.66937C9.73277 2.66937 10.7348 3.35094 11.4248 4.53875L11.7798 5.15094L12.4998 4.98406C13.6876 4.70258 14.9075 4.55715 16.1328 4.55094C20.8818 4.55094 24.7458 6.87687 27.3068 11.2784C27.5068 11.6234 27.7098 11.9834 27.9188 12.3566C29.6078 15.3603 31.7098 19.0981 36.5458 21.9509C37.6628 22.61 38.8268 22.9531 39.9518 23.2859C42.5118 24.0425 45.1468 24.8337 48.2778 29.3328C48.03 29.3131 47.7814 29.3037 47.5328 29.3047Z" fill="white"/>
</svg>
