<svg width="50" height="29" viewBox="0 0 50 29" fill="none" xmlns="http://www.w3.org/2000/svg">
<path d="M33.368 17.3746C33.368 16.9877 33.082 16.7756 32.6508 16.6243C32.2117 16.4783 31.682 16.4584 30.957 16.4584H27.743V19.8659H29.1508V18.6252H30.657C31.1523 18.6252 31.4633 18.6542 31.6492 18.7766C31.9008 18.9325 31.8695 19.2343 31.8695 19.4427V19.8632H33.2367V19.1926C33.2367 18.8908 33.2055 18.7394 33.018 18.5691C32.834 18.4412 32.5953 18.3437 32.3258 18.2863L32.3648 18.2763C32.7477 18.1921 33.3664 17.9175 33.3664 17.3746H33.368ZM31.5523 17.8649L31.4945 17.8604C31.307 17.9265 31.0883 17.932 30.8023 17.932H29.1195V17.1716H30.8367C31.0883 17.1716 31.332 17.1716 31.5289 17.2333C31.627 17.261 31.7086 17.305 31.7634 17.3597C31.8182 17.4144 31.8437 17.4773 31.8367 17.5405C31.8367 17.6864 31.7383 17.7987 31.5602 17.8658L31.5523 17.8649ZM42.2867 19.1355H39.5852V19.8632H42.3039C43.7102 19.8632 44.4914 19.527 44.4914 18.7965C44.4914 18.4558 44.3539 18.2528 44.1023 18.0933C43.7852 17.9329 43.2789 17.8567 42.582 17.8432L41.7992 17.8241C41.5805 17.8241 41.4258 17.8241 41.2633 17.787C41.1705 17.7701 41.0899 17.7361 41.0337 17.6901C40.9775 17.6441 40.9489 17.5887 40.9523 17.5323C40.9523 17.4236 40.9852 17.3338 41.1398 17.2822C41.3137 17.226 41.5115 17.1996 41.7102 17.2061H44.2648V16.4802H41.457C39.993 16.4802 39.4633 17.0085 39.4633 17.4952C39.4633 18.5854 41.0758 18.5283 42.3945 18.5473C42.6055 18.5473 42.768 18.5654 42.857 18.6171C42.9555 18.6561 43.0273 18.7449 43.0273 18.8346C43.0273 18.9288 42.9539 19.0186 42.8648 19.0521C42.7445 19.1173 42.557 19.1364 42.2883 19.1364L42.2867 19.1355ZM0.00078125 0V12.2017L1.68672 9.93159H5.33203L5.80234 10.4935V9.93159H10.0586L10.9945 11.1632L11.907 9.94156H25.457C26.068 9.94156 26.6195 10.0113 27.0273 10.2288V9.94972H30.7539V10.2288C31.3867 10.0213 32.1773 9.94972 33.0805 9.94972H38.507L39.0133 10.5116V9.94972H43.0086L43.5352 10.5116V9.94519H47.4102V14.7184H43.4789L42.7305 13.9907V14.6985H37.8227L37.293 13.9381H36.0727L35.5117 14.6785H32.9883C31.9867 14.6785 31.2383 14.5562 30.7336 14.3912V14.6785H24.7102V13.6128C24.7102 13.4669 24.6539 13.4669 24.4992 13.4469H24.2789V14.6976H12.6336V14.1221L12.1945 14.6976H9.76953L9.34609 14.1221V14.6831H4.65078L4.12109 13.9282H2.90859L2.38203 14.6831H-0.00390625V28.9991H49.5477V20.4088C48.9867 20.5728 48.2711 20.6253 47.5211 20.6253H43.9336V20.3181C43.4945 20.5166 42.7461 20.6253 42.0289 20.6253H30.643V19.5406C30.643 19.3947 30.6008 19.3947 30.3914 19.3947H30.2367V20.6308H26.4852V19.343C25.8664 19.5088 25.1414 19.5215 24.5477 19.5088H24.1086V20.6136H19.5695L18.4383 19.8668L17.2492 20.5945H9.87578V15.8458H17.3961L18.4773 16.5735L19.6336 15.8458H24.6539C25.2398 15.8458 26.1914 15.8848 26.6148 16.1204V15.8277H31.1477C31.5711 15.8277 32.4914 15.8848 33.0352 16.1004V15.8132H39.8305V16.1004C40.1727 15.902 40.8977 15.8132 41.507 15.8132H45.4445V16.1004C45.8523 15.9219 46.4133 15.8132 47.1945 15.8132H49.6445V0.00090625L0.00078125 0ZM44.0758 18.0679C44.0836 18.0779 44.0836 18.0869 44.093 18.0924C44.118 18.1005 44.1492 18.1005 44.1664 18.115L44.0773 18.0724L44.0758 18.0679ZM49.643 15.8077H49.782V16.4783H49.643V15.8077ZM49.7148 18.1622V18.1522C49.6586 18.1241 49.6258 18.0969 49.5602 18.0679C49.2523 17.8839 48.7461 17.8078 47.9727 17.7987L47.2164 17.7852C46.9727 17.7852 46.818 17.7752 46.6555 17.748C46.5628 17.731 46.4823 17.697 46.4262 17.651C46.3701 17.605 46.3414 17.5497 46.3445 17.4933C46.3445 17.3846 46.4086 17.2985 46.532 17.2468C46.6867 17.1952 46.8398 17.1861 47.093 17.1861H49.6414V16.4783H46.9727C45.5305 16.4783 44.9711 17.0067 44.9711 17.4933C44.9711 18.5781 46.5977 18.5265 47.9086 18.5455C48.1289 18.5455 48.2836 18.5591 48.3727 18.6153C48.4711 18.6543 48.5352 18.7431 48.5352 18.8328C48.534 18.8749 48.5165 18.9163 48.4841 18.9539C48.4516 18.9916 48.405 19.0245 48.3477 19.0503C48.2492 19.1155 48.0617 19.1346 47.7867 19.1346H45.0992V19.8659H47.7789C48.6555 19.8659 49.3086 19.7245 49.6586 19.4318H49.7148C49.9023 19.266 50.0008 19.0684 50.0008 18.8002C50.0008 18.5065 49.9023 18.328 49.7148 18.1622ZM38.7461 17.1671V16.4638H34.0898V19.8858H38.7461V19.1781H35.4727V18.4938H38.6648V17.7861H35.4727V17.1725L38.7461 17.1671ZM28.1508 10.6149H29.5742V14.0188H28.1508V10.6149ZM27.3445 11.5311L27.3273 11.5411C27.3273 11.1578 27.0586 10.9366 26.6195 10.7862C26.1711 10.6348 25.6445 10.6203 24.9367 10.6203H21.7305V14.0278H23.1367V12.7772H24.6352C25.1305 12.7772 25.4492 12.8144 25.6523 12.9231C25.907 13.089 25.8727 13.3808 25.8727 13.5838V14.0142H27.2805V13.3482C27.2805 13.0464 27.2477 12.895 27.0508 12.7201C26.8676 12.5942 26.6328 12.497 26.368 12.4374C26.6689 12.3602 26.9235 12.2328 27.0991 12.0714C27.2747 11.91 27.3634 11.7219 27.3539 11.5311H27.3445ZM25.5633 12.0087H25.5383C25.343 12.074 25.1305 12.0785 24.8461 12.0785H23.1289V11.3236H24.8461C25.0977 11.3236 25.3414 11.3281 25.5289 11.3852C25.7164 11.4323 25.8461 11.5411 25.8461 11.687C25.8461 11.8329 25.7477 11.9516 25.5633 12.0087ZM33.1711 11.3236H34.482V10.6013H33.1383C32.1773 10.6013 31.4695 10.7291 31.0148 10.9992C30.4211 11.3617 30.2648 11.8338 30.2648 12.344C30.2648 12.963 30.5164 13.3491 31.0148 13.6372C31.4945 13.9245 32.357 14.0152 33.032 14.0152H34.6617L35.1914 13.2548H38.0867L38.632 14.0152H41.4633V11.4659L44.118 14.0152H46.1039V10.6158H44.6711V12.9902L42.2148 10.6203H40.0898V13.7732L37.7289 10.5642H35.6367L33.6758 13.2503H33.0492C32.6852 13.2503 32.293 13.2131 32.0742 13.0844C31.8133 12.9059 31.6914 12.6503 31.6914 12.2869C31.6914 11.9426 31.8539 11.668 32.0898 11.5266C32.3664 11.3608 32.6602 11.3236 33.1648 11.3236H33.1711ZM36.6461 11.1967L37.607 12.5461V12.5507H35.6695L36.6461 11.1967ZM4.95703 13.2539L5.48672 14.0142H8.33516V11.3526L10.3617 14.0142H11.5742L13.5992 11.3526L13.632 14.0142H15.0711V10.6203H12.7445L11.068 12.9186L9.23828 10.6158H6.96797V13.8348L4.59141 10.6158H2.51641L0.0273438 14.0152H1.52266L2.06016 13.2603H4.95859L4.95703 13.2539ZM3.52422 11.1967L4.48516 12.5461L4.47734 12.5507H2.57266L3.52422 11.1967ZM24.6992 16.4584H20.2414L18.4664 17.5722L16.7492 16.4584H11.143V19.8659H16.668L18.4492 18.7385L20.168 19.8623H22.8758V18.7286H24.6258C25.8711 18.7286 27.0586 18.5301 27.0586 17.5867L27.0508 17.5822C27.0508 16.6388 25.807 16.4584 24.6992 16.4584ZM15.9836 19.1545H12.5414V18.4793H15.5992V17.7861H12.5414V17.1725H16.0398L17.5711 18.1631L15.9758 19.159L15.9836 19.1545ZM21.4836 19.556L19.3352 18.1676L21.4836 16.8327V19.556ZM24.7148 18.0353H22.8758V17.1662H24.7148C25.2195 17.1662 25.5945 17.2849 25.5945 17.5822C25.5945 17.8794 25.2867 18.0353 24.7148 18.0353ZM20.7695 11.3236V10.6158H16.1055V14.0197H20.7695V13.3164H17.4961V12.6358H20.6789V11.9371H17.4961V11.3236H20.7695Z" fill="white"/>
</svg>
